#!OML:ASF C:\ViconDB\ViconDB\414\Spring2016\041811\Spring2016.ASF
:FULLY-SPECIFIED
:DEGREES
209
root 11.0605 18.0408 10.2689 -177.684 -12.8068 -176.902
lowerback 2.42995 -0.331445 -0.0421382
upperback 2.22923 -0.565853 2.31329
thorax 0.946948 -0.348484 2.40443
lowerneck -12.4831 -1.3412 -6.80536
upperneck 20.5544 -4.90323 14.7952
head 9.00194 -1.80059 5.63416
rclavicle 1.67973e-014 2.20651e-014
rhumerus -85.9683 25.0594 -105.449
rradius 91.9109
rwrist 40.1012
rhand -48.5898 0.386752
rfingers 7.12502
rthumb -21.235 -28.4701
lclavicle 1.67973e-014 2.20651e-014
lhumerus -81.7306 -34.9896 110.128
lradius 79.5074
lwrist -37.9487
lhand -43.2339 0.353579
lfingers 7.12502
lthumb -16.0836 29.7061
rfemur 176.966 27.9954 -168.585
rtibia 33.7092
rfoot -6.63079 -56.0371
rtoes -8.42847e-014
lfemur -1.86732 -7.8784 -16.7491
ltibia 23.385
lfoot -24.9999 -7.36145
ltoes -4.79071e-014
210
root 11.04 18.0433 10.1897 -177.583 -13.1521 -176.956
lowerback 2.43076 -0.500306 0.08243
upperback 2.15387 -0.786167 2.33526
thorax 0.877193 -0.455824 2.36073
lowerneck -12.396 -1.33356 -6.71678
upperneck 20.4827 -4.89366 14.7426
head 8.9566 -1.79909 5.59744
rclavicle 3.13086e-015 7.95139e-016
rhumerus -86.1022 24.8893 -105.572
rradius 92.2858
rwrist 40.1522
rhand -48.4928 0.136726
rfingers 7.12502
rthumb -21.1418 -28.7305
lclavicle 3.13086e-015 7.95139e-016
lhumerus -81.7947 -35.0221 110.393
lradius 79.3067
lwrist -37.9549
lhand -43.7181 0.44982
lfingers 7.12502
lthumb -16.5498 29.7641
rfemur 179.482 29.1068 -167.643
rtibia 32.2838
rfoot -9.52409 -55.015
rtoes 4.92986e-014
lfemur -1.46438 -7.62193 -16.7115
ltibia 22.8845
lfoot -24.9209 -7.901
ltoes -4.59193e-014
211
root 11.013 18.0434 10.1059 -177.503 -13.4088 -176.986
lowerback 2.38028 -0.581741 0.3052
upperback 2.05507 -0.885343 2.30484
thorax 0.804244 -0.49982 2.20576
lowerneck -12.1365 -1.34913 -6.63251
upperneck 20.3473 -4.95619 14.8081
head 8.8691 -1.83432 5.59218
rclavicle -2.17172e-014 3.77691e-014
rhumerus -86.2231 24.538 -105.76
rradius 92.5758
rwrist 40.1203
rhand -48.5441 0.191454
rfingers 7.12502
rthumb -21.1912 -28.6703
lclavicle -2.17172e-014 3.77691e-014
lhumerus -82.1149 -35.3458 110.756
lradius 79.2057
lwrist -37.7972
lhand -44.1522 0.358871
lfingers 7.12502
lthumb -16.9677 29.6377
rfemur 182.016 30.6551 -166.461
rtibia 30.9734
rfoot -13.0453 -54.1683
rtoes -2.8625e-014
lfemur -0.94962 -7.61419 -16.7401
ltibia 22.3214
lfoot -24.8564 -8.12469
ltoes 1.45113e-014
212
root 10.9857 18.0438 10.0184 -177.355 -13.7271 -176.934
lowerback 2.14713 -0.736896 0.641796
upperback 2.01915 -1.09148 2.33359
thorax 0.899935 -0.599411 2.04597
lowerneck -12.1369 -1.35997 -6.68431
upperneck 20.3123 -4.97313 14.8744
head 8.86222 -1.84147 5.62199
rclavicle 2.73826e-014 -5.36719e-015
rhumerus -86.22 24.4136 -105.824
rradius 92.8438
rwrist 40.0762
rhand -48.3975 0.546127
rfingers 7.12502
rthumb -21.0504 -28.3314
lclavicle 2.73826e-014 -5.36719e-015
lhumerus -82.2583 -35.6088 111.073
lradius 79.047
lwrist -37.6111
lhand -44.3305 0.204479
lfingers 7.12502
lthumb -17.1393 29.4685
rfemur 184.722 32.4908 -164.881
rtibia 29.7888
rfoot -17.0454 -53.3768
rtoes -1.06946e-013
lfemur -0.509498 -7.3907 -16.612
ltibia 21.6808
lfoot -24.7616 -8.59775
ltoes 6.75868e-015
213
root 10.9635 18.0423 9.92477 -177.228 -13.9896 -177.041
lowerback 1.92735 -0.918249 0.629447
upperback 2.04241 -1.34343 2.44363
thorax 1.05791 -0.728476 2.16453
lowerneck -12.3428 -1.33848 -6.75236
upperneck 20.4179 -4.87283 14.7018
head 8.92116 -1.79762 5.58918
rclavicle 2.13694e-015 7.15625e-015
rhumerus -86.1456 24.6669 -105.862
rradius 93.033
rwrist 40.1512
rhand -48.5452 0.65339
rfingers 7.12502
rthumb -21.1922 -28.2082
lclavicle 2.13694e-015 7.15625e-015
lhumerus -82.2894 -35.7219 111.474
lradius 78.9403
lwrist -37.2552
lhand -44.5915 0.344459
lfingers 7.12502
lthumb -17.3906 29.5865
rfemur 187.428 34.5602 -163.169
rtibia 28.7985
rfoot -21.5667 -52.783
rtoes -7.91163e-014
lfemur 0.0984283 -7.27552 -16.6636
ltibia 20.9214
lfoot -24.6926 -8.93857
ltoes -3.18055e-014
214
root 10.9361 18.0401 9.82748 -176.963 -14.2501 -177.271
lowerback 1.55277 -1.05293 0.687175
upperback 1.96627 -1.52182 2.42118
thorax 1.19345 -0.8138 2.10322
lowerneck -12.3228 -1.34519 -6.76799
upperneck 20.5062 -4.86066 14.5731
head 8.94233 -1.80386 5.55024
rclavicle -9.93923e-017 1.98785e-014
rhumerus -86.2452 24.6297 -106.018
rradius 93.2882
rwrist 40.2371
rhand -48.6159 0.617301
rfingers 7.12502
rthumb -21.2601 -28.2367
lclavicle -9.93923e-017 1.98785e-014
lhumerus -82.6189 -36.0786 111.976
lradius 78.7999
lwrist -36.9264
lhand -44.7492 0.189024
lfingers 7.12502
lthumb -17.5423 29.4176
rfemur 190.385 36.7579 -161.247
rtibia 27.9422
rfoot -26.3837 -52.2312
rtoes 7.63333e-014
lfemur 0.610682 -7.14753 -16.8594
ltibia 20.1266
lfoot -24.6263 -9.24974
ltoes -1.23246e-014
215
root 10.9058 18.0364 9.71669 -176.703 -14.2463 -177.582
lowerback 1.05182 -1.0662 0.740037
upperback 1.8897 -1.53615 2.31202
thorax 1.39156 -0.814573 1.95134
lowerneck -12.0764 -1.34393 -6.92652
upperneck 20.4657 -4.87349 14.7019
head 8.8887 -1.82615 5.62047
rclavicle -1.5207e-014 2.26615e-014
rhumerus -86.2601 24.4263 -106.174
rradius 93.4477
rwrist 40.2871
rhand -48.7072 0.813341
rfingers 7.12502
rthumb -21.3478 -28.0307
lclavicle -1.5207e-014 2.26615e-014
lhumerus -83.1955 -36.5812 112.629
lradius 78.6846
lwrist -37.0139
lhand -45.0356 1.14042
lfingers 7.12502
lthumb -17.8179 30.3441
rfemur 193.553 39.2326 -158.83
rtibia 27.261
rfoot -32.2316 -51.9102
rtoes -7.71285e-014
lfemur 1.31814 -6.92868 -17.1977
ltibia 19.2255
lfoot -24.5718 -9.39942
ltoes 2.54444e-014
216
root 10.8619 18.0274 9.60865 -176.648 -14.1808 -177.615
lowerback 0.822552 -1.12882 1.46396
upperback 1.80914 -1.61309 2.09078
thorax 1.41362 -0.837755 1.31437
lowerneck -12.053 -1.27852 -6.51087
upperneck 20.67 -4.81783 14.3081
head 8.92886 -1.80544 5.41778
rclavicle -1.24737e-014 -1.90833e-014
rhumerus -86.3601 24.3063 -106.715
rradius 93.5657
rwrist 40.3399
rhand -48.8001 1.01882
rfingers 7.12502
rthumb -21.4371 -27.8151
lclavicle -1.24737e-014 -1.90833e-014
lhumerus -83.8784 -37.0173 113.121
lradius 78.5749
lwrist -35.9696
lhand -45.4355 0.911427
lfingers 7.12502
lthumb -18.2027 30.0797
rfemur 196.864 41.705 -155.789
rtibia 26.6768
rfoot -38.6209 -51.6845
rtoes -1.64991e-014
lfemur 2.18856 -7.29212 -17.4625
ltibia 18.3386
lfoot -24.6141 -8.81962
ltoes -2.64384e-014
217
root 10.8234 18.0164 9.49768 -176.431 -14.0599 -177.877
lowerback 0.276082 -1.09871 1.48207
upperback 1.80863 -1.59121 2.19143
thorax 1.72206 -0.826717 1.39539
lowerneck -12.042 -1.30576 -6.8146
upperneck 20.7914 -4.73088 14.0874
head 8.95621 -1.7988 5.40821
rclavicle -2.22639e-014 -1.11319e-014
rhumerus -86.3647 24.4707 -106.654
rradius 93.7716
rwrist 40.147
rhand -48.6503 1.58156
rfingers 7.12502
rthumb -21.2932 -27.2687
lclavicle -2.22639e-014 -1.11319e-014
lhumerus -84.176 -37.3702 113.98
lradius 78.357
lwrist -35.5315
lhand -45.7211 1.38105
lfingers 7.12502
lthumb -18.4775 30.5235
rfemur 200.35 43.6633 -152.819
rtibia 26.2016
rfoot -44.3556 -51.159
rtoes 1.48592e-013
lfemur 2.93374 -7.50439 -17.9148
ltibia 17.4729
lfoot -24.6793 -8.45317
ltoes -5.98342e-014
